<svg xmlns="http://www.w3.org/2000/svg" viewBox="0 0 512 512">
  <defs>
    <linearGradient id="bg" x1="0" y1="0" x2="0" y2="1">
      <stop offset="0" stop-color="#2e7ce6"/>
      <stop offset="1" stop-color="#0b2a5b"/>
    </linearGradient>
    <linearGradient id="body" x1="0" y1="0" x2="0" y2="1">
      <stop offset="0" stop-color="#f4f9ff"/>
      <stop offset="1" stop-color="#c3ddf6"/>
    </linearGradient>
    <clipPath id="bod"><path d="M100 318 C100 236 166 198 248 198 C334 198 402 240 402 314 C402 356 366 390 296 390 L172 390 C128 390 100 360 100 318 Z"/></clipPath>
  </defs>
  <rect width="512" height="512" fill="url(#bg)"/>
  <circle cx="248" cy="96" r="13" fill="#d8ecff"/>
  <circle cx="210" cy="122" r="9" fill="#d8ecff" opacity=".85"/>
  <circle cx="288" cy="122" r="9" fill="#d8ecff" opacity=".85"/>
  <g fill="url(#body)">
    <ellipse cx="408" cy="268" rx="52" ry="19" transform="rotate(-38 408 268)"/>
    <ellipse cx="418" cy="324" rx="44" ry="16" transform="rotate(26 418 324)"/>
  </g>
  <path d="M100 318 C100 236 166 198 248 198 C334 198 402 240 402 314 C402 356 366 390 296 390 L172 390 C128 390 100 360 100 318 Z" fill="url(#body)"/>
  <ellipse cx="248" cy="410" rx="150" ry="52" fill="#ffffff" opacity=".5" clip-path="url(#bod)"/>
  <path d="M128 330 Q148 346 172 336" stroke="#7fa8d9" stroke-width="8" fill="none" stroke-linecap="round"/>
  <circle cx="166" cy="284" r="13" fill="#13294f"/>
  <circle cx="170.5" cy="279.5" r="4" fill="#fff"/>
  <ellipse cx="196" cy="316" rx="13" ry="8" fill="#9ec7ff" opacity=".85"/>
</svg>
